<svg width="76" height="28" viewBox="0 0 76 28" fill="none" xmlns="http://www.w3.org/2000/svg">
<path d="M7.86717 7.69074L2.19212 12.3299L7.41317 16.598V19.0103L0.262599 13.0722C0.186931 12.9794 0.0712188 12.7538 0.0355964 12.6083C-0.0779291 12.1443 0.113154 11.7685 0.149026 11.6804C0.262455 11.4021 0.3761 11.3711 0.489601 11.2165C2.75962 9.29898 7.451 5.37113 7.64017 5.27835C8.20768 5 8.88868 5 9.00218 5C9.11569 5 9.79669 5 10.2507 5.27835C10.5075 5.43581 17.4013 10.9382 17.6283 11.2165C17.8553 11.4949 17.8553 11.5876 17.9688 11.866C18.0596 12.0887 17.9309 12.701 17.8553 12.9794L16.6847 14L16.0037 13.4433L15.2447 12.7938L15.8902 12.2371L10.3642 7.78351C10.2129 7.69073 9.81939 7.48661 9.45619 7.41239C9.00218 7.3196 8.43468 7.41239 8.43468 7.41239C8.43468 7.41239 8.01851 7.59795 7.86717 7.69074Z" fill="white"/>
<path d="M2.15652 15.7629L7.71808 20.3093L8.05858 20.5877L8.28558 20.6805L8.62609 20.7733H9.08009H9.42059L9.64759 20.6805L9.8746 20.5877L9.9881 20.4949L15.7767 15.7629L10.6691 11.5877V9.08252L17.7062 14.8351L17.9332 15.299V16.1341L17.7062 16.598L10.4421 22.6289L9.8746 22.9073L9.30709 23.0001H8.39908L7.71808 22.7217L0.227002 16.5052L0 16.0413V15.4846L0.227002 14.9279L1.36201 14.0001L2.83753 15.2062L2.15652 15.7629Z" fill="#B91022"/>
<path d="M13.6202 16.4124V14.0928L15.0958 15.299L13.6202 16.4124Z" fill="white"/>
<path d="M4.31294 11.6804L2.95093 12.8866L4.42644 14.0928L4.31294 11.6804Z" fill="#CF0520"/>
<path d="M25.13 17.62C24.57 17.62 24.0333 17.5467 23.52 17.4C23.0067 17.2467 22.5933 17.05 22.28 16.81L22.83 15.59C23.13 15.8033 23.4833 15.98 23.89 16.12C24.3033 16.2533 24.72 16.32 25.14 16.32C25.46 16.32 25.7167 16.29 25.91 16.23C26.11 16.1633 26.2567 16.0733 26.35 15.96C26.4433 15.8467 26.49 15.7167 26.49 15.57C26.49 15.3833 26.4167 15.2367 26.27 15.13C26.1233 15.0167 25.93 14.9267 25.69 14.86C25.45 14.7867 25.1833 14.72 24.89 14.66C24.6033 14.5933 24.3133 14.5133 24.02 14.42C23.7333 14.3267 23.47 14.2067 23.23 14.06C22.99 13.9133 22.7933 13.72 22.64 13.48C22.4933 13.24 22.42 12.9333 22.42 12.56C22.42 12.16 22.5267 11.7967 22.74 11.47C22.96 11.1367 23.2867 10.8733 23.72 10.68C24.16 10.48 24.71 10.38 25.37 10.38C25.81 10.38 26.2433 10.4333 26.67 10.54C27.0967 10.64 27.4733 10.7933 27.8 11L27.3 12.23C26.9733 12.0433 26.6467 11.9067 26.32 11.82C25.9933 11.7267 25.6733 11.68 25.36 11.68C25.0467 11.68 24.79 11.7167 24.59 11.79C24.39 11.8633 24.2467 11.96 24.16 12.08C24.0733 12.1933 24.03 12.3267 24.03 12.48C24.03 12.66 24.1033 12.8067 24.25 12.92C24.3967 13.0267 24.59 13.1133 24.83 13.18C25.07 13.2467 25.3333 13.3133 25.62 13.38C25.9133 13.4467 26.2033 13.5233 26.49 13.61C26.7833 13.6967 27.05 13.8133 27.29 13.96C27.53 14.1067 27.7233 14.3 27.87 14.54C28.0233 14.78 28.1 15.0833 28.1 15.45C28.1 15.8433 27.99 16.2033 27.77 16.53C27.55 16.8567 27.22 17.12 26.78 17.32C26.3467 17.52 25.7967 17.62 25.13 17.62ZM29.097 17.5V12.12H30.657V17.5H29.097ZM29.877 11.37C29.5903 11.37 29.357 11.2867 29.177 11.12C28.997 10.9533 28.907 10.7467 28.907 10.5C28.907 10.2533 28.997 10.0467 29.177 9.88C29.357 9.71333 29.5903 9.63 29.877 9.63C30.1636 9.63 30.397 9.71 30.577 9.87C30.757 10.0233 30.847 10.2233 30.847 10.47C30.847 10.73 30.757 10.9467 30.577 11.12C30.4036 11.2867 30.1703 11.37 29.877 11.37ZM34.6348 19.52C34.1281 19.52 33.6381 19.4567 33.1648 19.33C32.6981 19.21 32.3081 19.0267 31.9948 18.78L32.6148 17.66C32.8414 17.8467 33.1281 17.9933 33.4748 18.1C33.8281 18.2133 34.1748 18.27 34.5148 18.27C35.0681 18.27 35.4681 18.1467 35.7148 17.9C35.9681 17.6533 36.0948 17.2867 36.0948 16.8V15.99L36.1948 14.64L36.1748 13.28V12.12H37.6548V16.6C37.6548 17.6 37.3948 18.3367 36.8748 18.81C36.3548 19.2833 35.6081 19.52 34.6348 19.52ZM34.3948 17.24C33.8948 17.24 33.4414 17.1333 33.0348 16.92C32.6348 16.7 32.3114 16.3967 32.0648 16.01C31.8248 15.6167 31.7048 15.16 31.7048 14.64C31.7048 14.1133 31.8248 13.6567 32.0648 13.27C32.3114 12.8767 32.6348 12.5733 33.0348 12.36C33.4414 12.1467 33.8948 12.04 34.3948 12.04C34.8481 12.04 35.2481 12.1333 35.5948 12.32C35.9414 12.5 36.2114 12.7833 36.4048 13.17C36.5981 13.55 36.6948 14.04 36.6948 14.64C36.6948 15.2333 36.5981 15.7233 36.4048 16.11C36.2114 16.49 35.9414 16.7733 35.5948 16.96C35.2481 17.1467 34.8481 17.24 34.3948 17.24ZM34.7048 15.96C34.9781 15.96 35.2214 15.9067 35.4348 15.8C35.6481 15.6867 35.8148 15.53 35.9348 15.33C36.0548 15.13 36.1148 14.9 36.1148 14.64C36.1148 14.3733 36.0548 14.1433 35.9348 13.95C35.8148 13.75 35.6481 13.5967 35.4348 13.49C35.2214 13.3767 34.9781 13.32 34.7048 13.32C34.4314 13.32 34.1881 13.3767 33.9748 13.49C33.7614 13.5967 33.5914 13.75 33.4648 13.95C33.3448 14.1433 33.2848 14.3733 33.2848 14.64C33.2848 14.9 33.3448 15.13 33.4648 15.33C33.5914 15.53 33.7614 15.6867 33.9748 15.8C34.1881 15.9067 34.4314 15.96 34.7048 15.96ZM45.9967 12.04C46.4234 12.04 46.8001 12.1267 47.1267 12.3C47.4601 12.4667 47.7201 12.7267 47.9067 13.08C48.1001 13.4267 48.1967 13.8733 48.1967 14.42V17.5H46.6367V14.66C46.6367 14.2267 46.5467 13.9067 46.3667 13.7C46.1867 13.4933 45.9334 13.39 45.6067 13.39C45.3801 13.39 45.1767 13.4433 44.9967 13.55C44.8167 13.65 44.6767 13.8033 44.5767 14.01C44.4767 14.2167 44.4267 14.48 44.4267 14.8V17.5H42.8667V14.66C42.8667 14.2267 42.7767 13.9067 42.5967 13.7C42.4234 13.4933 42.1734 13.39 41.8467 13.39C41.6201 13.39 41.4167 13.4433 41.2367 13.55C41.0567 13.65 40.9167 13.8033 40.8167 14.01C40.7167 14.2167 40.6667 14.48 40.6667 14.8V17.5H39.1067V12.12H40.5967V13.59L40.3167 13.16C40.5034 12.7933 40.7667 12.5167 41.1067 12.33C41.4534 12.1367 41.8467 12.04 42.2867 12.04C42.7801 12.04 43.2101 12.1667 43.5767 12.42C43.9501 12.6667 44.1967 13.0467 44.3167 13.56L43.7667 13.41C43.9467 12.99 44.2334 12.6567 44.6267 12.41C45.0267 12.1633 45.4834 12.04 45.9967 12.04ZM52.895 17.5V16.45L52.795 16.22V14.34C52.795 14.0067 52.6917 13.7467 52.485 13.56C52.285 13.3733 51.975 13.28 51.555 13.28C51.2683 13.28 50.985 13.3267 50.705 13.42C50.4317 13.5067 50.1983 13.6267 50.005 13.78L49.445 12.69C49.7383 12.4833 50.0917 12.3233 50.505 12.21C50.9183 12.0967 51.3383 12.04 51.765 12.04C52.585 12.04 53.2217 12.2333 53.675 12.62C54.1283 13.0067 54.355 13.61 54.355 14.43V17.5H52.895ZM51.255 17.58C50.835 17.58 50.475 17.51 50.175 17.37C49.875 17.2233 49.645 17.0267 49.485 16.78C49.325 16.5333 49.245 16.2567 49.245 15.95C49.245 15.63 49.3217 15.35 49.475 15.11C49.635 14.87 49.885 14.6833 50.225 14.55C50.565 14.41 51.0083 14.34 51.555 14.34H52.985V15.25H51.725C51.3583 15.25 51.105 15.31 50.965 15.43C50.8317 15.55 50.765 15.7 50.765 15.88C50.765 16.08 50.8417 16.24 50.995 16.36C51.155 16.4733 51.3717 16.53 51.645 16.53C51.905 16.53 52.1383 16.47 52.345 16.35C52.5517 16.2233 52.7017 16.04 52.795 15.8L53.035 16.52C52.9217 16.8667 52.715 17.13 52.415 17.31C52.115 17.49 51.7283 17.58 51.255 17.58Z" fill="white"/>
<path d="M55.8769 17.5V10.5H58.9069C59.5335 10.5 60.0735 10.6033 60.5269 10.81C60.9802 11.01 61.3302 11.3 61.5769 11.68C61.8235 12.06 61.9469 12.5133 61.9469 13.04C61.9469 13.56 61.8235 14.01 61.5769 14.39C61.3302 14.7633 60.9802 15.05 60.5269 15.25C60.0735 15.45 59.5335 15.55 58.9069 15.55H56.7769L57.4969 14.84V17.5H55.8769ZM60.3269 17.5L58.5769 14.96H60.3069L62.0769 17.5H60.3269ZM57.4969 15.02L56.7769 14.26H58.8169C59.3169 14.26 59.6902 14.1533 59.9369 13.94C60.1835 13.72 60.3069 13.42 60.3069 13.04C60.3069 12.6533 60.1835 12.3533 59.9369 12.14C59.6902 11.9267 59.3169 11.82 58.8169 11.82H56.7769L57.4969 11.05V15.02ZM65.7904 17.58C65.1771 17.58 64.6371 17.46 64.1704 17.22C63.7104 16.98 63.3537 16.6533 63.1004 16.24C62.8471 15.82 62.7204 15.3433 62.7204 14.81C62.7204 14.27 62.8437 13.7933 63.0904 13.38C63.3437 12.96 63.6871 12.6333 64.1204 12.4C64.5537 12.16 65.0437 12.04 65.5904 12.04C66.1171 12.04 66.5904 12.1533 67.0104 12.38C67.4371 12.6 67.7737 12.92 68.0204 13.34C68.2671 13.7533 68.3904 14.25 68.3904 14.83C68.3904 14.89 68.3871 14.96 68.3804 15.04C68.3737 15.1133 68.3671 15.1833 68.3604 15.25H63.9904V14.34H67.5404L66.9404 14.61C66.9404 14.33 66.8837 14.0867 66.7704 13.88C66.6571 13.6733 66.5004 13.5133 66.3004 13.4C66.1004 13.28 65.8671 13.22 65.6004 13.22C65.3337 13.22 65.0971 13.28 64.8904 13.4C64.6904 13.5133 64.5337 13.6767 64.4204 13.89C64.3071 14.0967 64.2504 14.3433 64.2504 14.63V14.87C64.2504 15.1633 64.3137 15.4233 64.4404 15.65C64.5737 15.87 64.7571 16.04 64.9904 16.16C65.2304 16.2733 65.5104 16.33 65.8304 16.33C66.1171 16.33 66.3671 16.2867 66.5804 16.2C66.8004 16.1133 67.0004 15.9833 67.1804 15.81L68.0104 16.71C67.7637 16.99 67.4537 17.2067 67.0804 17.36C66.7071 17.5067 66.2771 17.58 65.7904 17.58ZM71.739 17.58C71.2323 17.58 70.7757 17.4667 70.369 17.24C69.9623 17.0067 69.639 16.6833 69.399 16.27C69.1657 15.8567 69.049 15.37 69.049 14.81C69.049 14.2433 69.1657 13.7533 69.399 13.34C69.639 12.9267 69.9623 12.6067 70.369 12.38C70.7757 12.1533 71.2323 12.04 71.739 12.04C72.1923 12.04 72.589 12.14 72.929 12.34C73.269 12.54 73.5323 12.8433 73.719 13.25C73.9057 13.6567 73.999 14.1767 73.999 14.81C73.999 15.4367 73.909 15.9567 73.729 16.37C73.549 16.7767 73.289 17.08 72.949 17.28C72.6157 17.48 72.2123 17.58 71.739 17.58ZM72.009 16.3C72.2623 16.3 72.4923 16.24 72.699 16.12C72.9057 16 73.069 15.83 73.189 15.61C73.3157 15.3833 73.379 15.1167 73.379 14.81C73.379 14.4967 73.3157 14.23 73.189 14.01C73.069 13.79 72.9057 13.62 72.699 13.5C72.4923 13.38 72.2623 13.32 72.009 13.32C71.749 13.32 71.5157 13.38 71.309 13.5C71.1023 13.62 70.9357 13.79 70.809 14.01C70.689 14.23 70.629 14.4967 70.629 14.81C70.629 15.1167 70.689 15.3833 70.809 15.61C70.9357 15.83 71.1023 16 71.309 16.12C71.5157 16.24 71.749 16.3 72.009 16.3ZM73.419 17.5V16.4L73.449 14.8L73.349 13.21V10.08H74.909V17.5H73.419Z" fill="#C50C20"/>
</svg>
